<svg xmlns="http://www.w3.org/2000/svg" xmlns:xlink="http://www.w3.org/1999/xlink" width="500" zoomAndPan="magnify" viewBox="0 0 375 374.999991" height="500" preserveAspectRatio="xMidYMid meet" version="1.0"><defs><g/><clipPath id="id1"><path d="M 66 34 L 329 34 L 329 341 L 66 341 Z M 66 34 " clip-rule="nonzero"/></clipPath><clipPath id="id2"><path d="M 71.351562 30.222656 L 333.746094 37.648438 L 324.898438 350.273438 L 62.503906 342.847656 Z M 71.351562 30.222656 " clip-rule="nonzero"/></clipPath><clipPath id="id3"><path d="M 71.351562 30.222656 L 333.746094 37.648438 L 324.898438 350.273438 L 62.503906 342.847656 Z M 71.351562 30.222656 " clip-rule="nonzero"/></clipPath><clipPath id="id4"><path d="M 71.351562 30.222656 L 333.746094 37.648438 L 324.898438 350.273438 L 62.503906 342.847656 Z M 71.351562 30.222656 " clip-rule="nonzero"/></clipPath><clipPath id="id5"><path d="M 173 198 L 223 198 L 223 235 L 173 235 Z M 173 198 " clip-rule="nonzero"/></clipPath><clipPath id="id6"><path d="M 71.351562 30.222656 L 333.746094 37.648438 L 324.898438 350.273438 L 62.503906 342.847656 Z M 71.351562 30.222656 " clip-rule="nonzero"/></clipPath><clipPath id="id7"><path d="M 71.351562 30.222656 L 333.746094 37.648438 L 324.898438 350.273438 L 62.503906 342.847656 Z M 71.351562 30.222656 " clip-rule="nonzero"/></clipPath><clipPath id="id8"><path d="M 71.351562 30.222656 L 333.746094 37.648438 L 324.898438 350.273438 L 62.503906 342.847656 Z M 71.351562 30.222656 " clip-rule="nonzero"/></clipPath><clipPath id="id9"><path d="M 160 213 L 244 213 L 244 257 L 160 257 Z M 160 213 " clip-rule="nonzero"/></clipPath><clipPath id="id10"><path d="M 71.351562 30.222656 L 333.746094 37.648438 L 324.898438 350.273438 L 62.503906 342.847656 Z M 71.351562 30.222656 " clip-rule="nonzero"/></clipPath><clipPath id="id11"><path d="M 71.351562 30.222656 L 333.746094 37.648438 L 324.898438 350.273438 L 62.503906 342.847656 Z M 71.351562 30.222656 " clip-rule="nonzero"/></clipPath><clipPath id="id12"><path d="M 71.351562 30.222656 L 333.746094 37.648438 L 324.898438 350.273438 L 62.503906 342.847656 Z M 71.351562 30.222656 " clip-rule="nonzero"/></clipPath></defs><g clip-path="url(#id1)"><g clip-path="url(#id2)"><g clip-path="url(#id3)"><g clip-path="url(#id4)"><path fill="#ffffff" d="M 328.589844 218.722656 C 329.0625 202.050781 315.9375 188.148438 299.277344 187.675781 C 282.609375 187.203125 268.722656 200.339844 268.25 217.015625 L 268.242188 217.398438 C 263.296875 215.6875 261.757812 222.492188 261.757812 222.492188 C 261.585938 224.539062 261.757812 226.542969 262.195312 228.484375 C 262.226562 229.109375 262.277344 229.78125 262.351562 230.492188 L 262.25 230.324219 C 262.25 230.324219 258.613281 232.179688 258.480469 236.910156 C 258.4375 238.5 258.785156 240.417969 259.800781 242.699219 L 257.910156 244.316406 C 256.628906 241.804688 254.832031 239.144531 252.359375 236.375 C 250.855469 234.304688 249.359375 232.398438 248.289062 231.367188 C 250.484375 228.527344 251.710938 226.125 251.710938 226.125 C 248.871094 226.824219 246.234375 227.277344 243.765625 227.546875 L 243.300781 226.320312 C 249.957031 225.113281 260.011719 221.246094 265.519531 209.082031 C 271.933594 194.921875 260.707031 185.367188 251.074219 188.109375 L 250.820312 187.277344 C 252.203125 186.164062 253.492188 185.042969 254.683594 183.910156 C 258.644531 180.140625 261.558594 176.339844 263.640625 173.09375 C 265.285156 170.535156 266.410156 168.328125 267.125 166.757812 C 267.796875 165.289062 268.109375 164.382812 268.140625 164.277344 C 268.101562 164.316406 268.066406 164.367188 268.027344 164.414062 C 268.066406 164.300781 268.113281 164.195312 268.152344 164.082031 L 268.148438 164.261719 C 268.148438 164.261719 268.40625 163.605469 268.738281 162.464844 C 269.144531 161.234375 269.445312 160.03125 269.554688 158.960938 C 269.832031 157.417969 270.0625 155.605469 270.117188 153.617188 C 270.25 148.898438 269.425781 143.195312 266.113281 137.773438 C 258.894531 125.980469 239.492188 118.136719 231.480469 116.835938 C 229.367188 104.695312 225.074219 89.914062 216.558594 74.988281 C 216.558594 74.988281 245.285156 50.605469 228.703125 35 C 228.574219 34.988281 228.457031 34.96875 228.328125 34.964844 C 228.046875 37.347656 225.339844 53.625 203.019531 57.601562 C 184.511719 60.902344 167.707031 87.308594 163.023438 116.347656 C 151.800781 118.234375 118.136719 127.082031 132.695312 163.980469 C 132.695312 163.980469 137.609375 177.0625 146.882812 182.835938 L 146.789062 185.335938 C 137.183594 181.082031 124.4375 190.089844 130.230469 205.082031 C 134.871094 217.097656 144.175781 221.644531 150.726562 223.371094 L 151 224.828125 C 148.742188 224.417969 146.351562 223.851562 143.808594 223.070312 C 143.808594 223.070312 147.589844 231.652344 154.230469 235.949219 C 152.226562 237.667969 147.015625 242.363281 142.425781 248.285156 L 133.53125 239.785156 C 134.675781 237.5625 135.132812 235.671875 135.179688 234.078125 C 135.3125 229.347656 131.789062 227.292969 131.789062 227.292969 L 131.679688 227.453125 C 131.789062 226.746094 131.878906 226.082031 131.949219 225.457031 C 132.484375 223.546875 132.777344 221.546875 132.722656 219.5 C 132.722656 219.5 131.574219 212.621094 126.539062 214.046875 L 126.550781 213.664062 C 127.019531 196.992188 113.902344 183.089844 97.234375 182.617188 C 80.570312 182.148438 66.679688 195.285156 66.207031 211.957031 C 65.75 228.097656 78.042969 241.644531 93.933594 242.917969 L 93.871094 242.929688 C 93.871094 242.929688 93.585938 253.027344 105.785156 251.1875 C 106.882812 253.523438 109.640625 257.988281 114.425781 257.199219 C 117.679688 256.660156 120.078125 255.773438 122.667969 253.605469 L 134.984375 262.191406 C 133.089844 269.621094 135.269531 277.035156 146.578125 282.105469 C 146.578125 282.105469 140.261719 276.117188 142.984375 267.761719 L 144.921875 269.113281 C 145.429688 272.496094 146.6875 277.195312 149.722656 281.675781 C 150.828125 288.257812 151.492188 298.792969 145.839844 303.949219 C 145.839844 303.949219 152.820312 301.710938 158 296.898438 C 158.316406 298.140625 158.632812 299.484375 158.933594 300.90625 C 158.132812 304.054688 157.097656 307.554688 155.816406 310.859375 L 137.003906 322.628906 C 137.003906 322.628906 136.296875 327.042969 141.179688 330.203125 L 142.679688 329.378906 L 160.683594 319.332031 C 160.28125 324.066406 158.847656 328.011719 155.65625 329.824219 C 155.65625 329.824219 175.15625 339.085938 189.121094 328.996094 C 189.121094 328.996094 186.246094 336.378906 180.488281 339.058594 C 180.488281 339.058594 205.308594 346.871094 222.929688 326.753906 C 222.929688 326.753906 227.386719 326.65625 233.132812 324.027344 L 236.46875 326.140625 C 236.457031 326.171875 236.441406 326.195312 236.429688 326.226562 C 237.386719 326.515625 238.269531 327.152344 239.058594 327.871094 C 239.078125 327.859375 239.097656 327.84375 239.121094 327.828125 L 252.792969 336.507812 L 254.242188 337.414062 C 259.296875 334.535156 258.835938 330.085938 258.835938 330.085938 L 245.65625 320.769531 C 254.535156 308 256.726562 289.425781 256.726562 289.40625 C 257.511719 286.421875 258.585938 280.136719 257.328125 270.667969 C 257.507812 269.265625 257.492188 267.828125 257.308594 266.371094 C 257.660156 265.855469 258.152344 265.058594 258.652344 264.019531 L 269.867188 257.113281 C 272.324219 259.421875 274.671875 260.449219 277.894531 261.167969 C 282.625 262.226562 285.621094 257.921875 286.859375 255.65625 C 298.929688 258.179688 299.222656 248.085938 299.222656 248.085938 L 299.152344 248.066406 C 315.097656 247.691406 328.132812 234.863281 328.589844 218.722656 Z M 328.589844 218.722656 " fill-opacity="1" fill-rule="nonzero"/><path fill="#000000" d="M 328.589844 218.722656 C 329.0625 202.050781 315.9375 188.148438 299.277344 187.675781 C 282.609375 187.203125 268.722656 200.339844 268.25 217.015625 L 268.242188 217.398438 C 263.296875 215.6875 261.757812 222.492188 261.757812 222.492188 C 261.585938 224.539062 261.757812 226.542969 262.195312 228.484375 C 262.226562 229.109375 262.277344 229.78125 262.351562 230.492188 L 262.25 230.324219 C 262.25 230.324219 258.613281 232.179688 258.480469 236.910156 C 258.4375 238.5 258.785156 240.417969 259.800781 242.699219 L 257.910156 244.316406 C 256.628906 241.804688 254.832031 239.144531 252.359375 236.375 C 250.855469 234.304688 249.359375 232.398438 248.289062 231.367188 C 250.484375 228.527344 251.710938 226.125 251.710938 226.125 C 248.871094 226.824219 246.234375 227.277344 243.765625 227.546875 L 243.300781 226.320312 C 249.957031 225.113281 260.011719 221.246094 265.519531 209.082031 C 271.933594 194.921875 260.707031 185.367188 251.074219 188.109375 L 250.820312 187.277344 C 252.203125 186.164062 253.492188 185.042969 254.683594 183.910156 C 258.644531 180.140625 261.558594 176.339844 263.640625 173.09375 C 265.285156 170.535156 266.410156 168.328125 267.125 166.757812 C 267.796875 165.289062 268.109375 164.382812 268.140625 164.277344 C 268.101562 164.316406 268.066406 164.367188 268.027344 164.414062 C 268.066406 164.300781 268.113281 164.195312 268.152344 164.082031 L 268.148438 164.261719 C 268.148438 164.261719 268.40625 163.605469 268.738281 162.464844 C 269.144531 161.234375 269.445312 160.03125 269.554688 158.960938 C 269.832031 157.417969 270.0625 155.605469 270.117188 153.617188 C 270.25 148.898438 269.425781 143.195312 266.113281 137.773438 C 258.894531 125.980469 239.492188 118.136719 231.480469 116.835938 C 229.367188 104.695312 225.074219 89.914062 216.558594 74.988281 C 216.558594 74.988281 245.285156 50.605469 228.703125 35 C 228.59375 34.886719 228.476562 34.777344 228.355469 34.675781 C 228.355469 34.675781 228.347656 34.773438 228.328125 34.964844 C 228.046875 37.347656 225.339844 53.625 203.019531 57.601562 C 184.511719 60.902344 167.707031 87.308594 163.023438 116.347656 C 151.800781 118.234375 118.136719 127.082031 132.695312 163.980469 C 132.695312 163.980469 137.609375 177.0625 146.882812 182.835938 L 146.789062 185.335938 C 137.183594 181.082031 124.4375 190.089844 130.230469 205.082031 C 134.871094 217.097656 144.175781 221.644531 150.726562 223.371094 L 151 224.828125 C 148.742188 224.417969 146.351562 223.851562 143.808594 223.070312 C 143.808594 223.070312 147.589844 231.652344 154.230469 235.949219 C 152.226562 237.667969 147.015625 242.363281 142.425781 248.285156 L 133.53125 239.785156 C 134.675781 237.5625 135.132812 235.671875 135.179688 234.078125 C 135.3125 229.347656 131.789062 227.292969 131.789062 227.292969 L 131.679688 227.453125 C 131.789062 226.746094 131.878906 226.082031 131.949219 225.457031 C 132.484375 223.546875 132.777344 221.546875 132.722656 219.5 C 132.722656 219.5 131.574219 212.621094 126.539062 214.046875 L 126.550781 213.664062 C 127.019531 196.992188 113.902344 183.089844 97.234375 182.617188 C 93.617188 182.515625 90.132812 183.054688 86.886719 184.132812 C 75.175781 188.019531 66.578125 198.902344 66.207031 211.957031 C 65.75 228.097656 78.042969 241.644531 93.933594 242.917969 L 93.871094 242.929688 C 93.871094 242.929688 93.585938 253.027344 105.785156 251.1875 C 106.882812 253.523438 109.640625 257.988281 114.425781 257.199219 C 117.679688 256.660156 120.078125 255.773438 122.667969 253.605469 L 134.984375 262.191406 C 133.089844 269.621094 135.269531 277.035156 146.578125 282.105469 C 146.578125 282.105469 140.261719 276.117188 142.984375 267.761719 L 144.921875 269.113281 C 145.429688 272.496094 146.6875 277.195312 149.722656 281.675781 C 150.828125 288.257812 151.492188 298.792969 145.839844 303.949219 C 145.839844 303.949219 152.820312 301.710938 158 296.898438 C 158.316406 298.140625 158.632812 299.484375 158.933594 300.90625 C 158.132812 304.054688 157.097656 307.554688 155.816406 310.859375 L 137.003906 322.628906 C 137.003906 322.628906 136.296875 327.042969 141.179688 330.203125 L 142.679688 329.378906 L 160.683594 319.332031 C 160.28125 324.066406 158.847656 328.011719 155.65625 329.824219 C 155.65625 329.824219 175.15625 339.085938 189.121094 328.996094 C 189.121094 328.996094 186.246094 336.378906 180.488281 339.058594 C 180.488281 339.058594 205.308594 346.871094 222.929688 326.753906 C 222.929688 326.753906 227.386719 326.65625 233.132812 324.027344 L 236.46875 326.140625 C 236.457031 326.171875 236.441406 326.195312 236.429688 326.226562 C 237.386719 326.515625 238.269531 327.152344 239.058594 327.871094 C 239.078125 327.859375 239.097656 327.84375 239.121094 327.828125 L 252.792969 336.507812 L 254.242188 337.414062 C 259.296875 334.535156 258.835938 330.085938 258.835938 330.085938 L 245.65625 320.769531 C 254.535156 308 256.726562 289.425781 256.726562 289.40625 C 257.511719 286.421875 258.585938 280.136719 257.328125 270.667969 C 257.507812 269.265625 257.492188 267.828125 257.308594 266.371094 C 257.660156 265.855469 258.152344 265.058594 258.652344 264.019531 L 269.867188 257.113281 C 272.324219 259.421875 274.671875 260.449219 277.894531 261.167969 C 282.625 262.226562 285.621094 257.921875 286.859375 255.65625 C 298.929688 258.179688 299.222656 248.085938 299.222656 248.085938 L 299.152344 248.066406 C 315.097656 247.691406 328.132812 234.863281 328.589844 218.722656 Z M 104.542969 232.835938 C 107.710938 230.667969 109.828125 227.078125 109.945312 222.945312 C 110.140625 216.082031 104.738281 210.355469 97.875 210.160156 C 91.015625 209.964844 85.292969 215.378906 85.097656 222.242188 C 85.054688 223.773438 85.304688 225.246094 85.777344 226.625 C 82.164062 222.515625 80.105469 218.496094 79.175781 214.671875 L 90.042969 206.738281 L 80.742188 205.535156 L 85.691406 201.363281 L 80.566406 200.191406 C 81.875 197.117188 83.699219 194.34375 85.621094 191.953125 C 86.25 191.335938 87.054688 190.664062 88.074219 189.980469 C 89.605469 189.207031 95.441406 186.710938 103.183594 189.183594 C 111.136719 191.953125 122.039062 198.75 122.941406 215.296875 C 122.484375 218.125 121.59375 220.800781 120.328125 223.25 C 115.308594 229.660156 109.660156 232.191406 104.542969 232.835938 Z M 108.480469 247.539062 C 108.480469 247.539062 108.339844 247.519531 108.101562 247.472656 C 115.152344 242.585938 119.914062 233.71875 122.34375 228.207031 C 124.28125 224.941406 125.621094 221.277344 126.214844 217.359375 C 126.480469 217.324219 126.757812 217.3125 127.039062 217.320312 C 128.242188 217.351562 129.476562 217.859375 129.515625 219.765625 C 129.585938 223.5 131.382812 235.324219 108.480469 247.539062 Z M 132.976562 235.503906 C 131.925781 241.339844 125.136719 248.96875 118.828125 252.167969 C 116.78125 253.207031 115.101562 253.164062 113.765625 252.644531 C 116.890625 250.144531 121.953125 245.746094 126.460938 240.121094 C 129.179688 236.734375 130.605469 232.679688 131.351562 229.167969 C 134.007812 232.492188 132.976562 235.503906 132.976562 235.503906 Z M 137.398438 256.03125 L 134.859375 253.574219 C 135.652344 251.214844 135.507812 247.523438 135.304688 245.140625 L 140.742188 250.5625 C 139.511719 252.320312 138.367188 254.152344 137.398438 256.03125 Z M 245.785156 228.929688 C 236.691406 242.648438 224.417969 236.828125 223.953125 236.601562 C 223.953125 236.601562 224.738281 238.566406 225.855469 239.832031 C 218.359375 240.59375 213.082031 235.460938 213.082031 235.460938 C 213.082031 235.460938 213.0625 238.5625 215.203125 240.488281 C 212.585938 240.691406 209.035156 240.421875 206.921875 238.070312 C 207.683594 236.089844 208.472656 234.03125 209.230469 232.0625 L 210.328125 232.339844 L 209.722656 230.78125 C 210.382812 229.070312 211 227.464844 211.535156 226.082031 L 215.597656 228.1875 L 212.320312 224.0625 C 212.917969 222.515625 213.304688 221.53125 213.359375 221.425781 C 225.738281 233.289062 238.550781 231.496094 245.785156 228.929688 Z M 190.4375 213.726562 C 191.097656 213.46875 191.78125 213.195312 192.472656 212.886719 C 194.125 212.242188 195.984375 211.445312 197.179688 210.675781 L 197.222656 210.675781 C 197.417969 210.800781 200.839844 212.953125 202.738281 213.578125 C 202.816406 213.613281 202.90625 213.660156 202.992188 213.699219 C 201.558594 216.914062 200.796875 223.226562 200.496094 226.347656 C 200.542969 226.371094 200.585938 226.398438 200.636719 226.421875 C 201.613281 222.269531 204.382812 217.734375 206.144531 215.136719 C 206.925781 215.457031 207.765625 215.773438 208.648438 216.082031 C 208.050781 219.917969 206.921875 226.714844 205.515625 232.695312 C 204.882812 235.203125 204.429688 236.910156 204.429688 236.910156 C 203.425781 240.445312 202.332031 243.214844 201.234375 244.128906 C 197.230469 247.457031 194.371094 243.933594 194.371094 243.933594 C 190.703125 241.972656 185.648438 223.527344 183.644531 215.695312 C 184.332031 215.542969 184.996094 215.371094 185.632812 215.195312 C 186.148438 215.082031 186.671875 214.953125 187.203125 214.800781 C 188.820312 217.535156 191.1875 222.042969 191.898438 226.101562 C 191.949219 226.082031 192 226.054688 192.046875 226.035156 C 191.925781 223.046875 191.554688 217.113281 190.4375 213.726562 Z M 208.804688 217.914062 C 208.851562 217.28125 208.894531 216.707031 208.933594 216.183594 C 208.972656 216.199219 209.015625 216.214844 209.066406 216.230469 C 208.992188 216.746094 208.90625 217.3125 208.804688 217.914062 Z M 225.1875 215.136719 C 227.15625 213.902344 229.742188 211.878906 231.347656 209.074219 C 231.195312 209.199219 228.695312 211.175781 225.773438 212.1875 C 230.117188 207.824219 232.105469 201.339844 232.957031 197.332031 C 234.984375 196.578125 236.890625 195.757812 238.707031 194.882812 C 238.972656 200.464844 239.359375 221.140625 230.566406 227.097656 C 220.574219 225.050781 215.90625 219.507812 214.953125 218.238281 L 215.179688 217.796875 C 221.28125 218.855469 228.289062 218.457031 234.335938 213.90625 C 234.078125 213.984375 229.820312 215.292969 225.1875 215.136719 Z M 259.550781 194.050781 C 267.152344 199.871094 257.019531 220.738281 238.742188 226.277344 C 240.347656 223.890625 242.394531 219.695312 243.34375 212.957031 L 248.324219 208.238281 C 248.9375 209.648438 249.644531 212.515625 247.566406 216.101562 C 247.816406 215.925781 252.242188 212.601562 251.234375 205.484375 L 257.015625 200.023438 L 243.851562 206.363281 C 243.898438 204.394531 243.851562 202.269531 243.695312 199.976562 C 246.414062 196.609375 253.371094 189.320312 259.550781 194.050781 Z M 209.792969 62.949219 C 209.792969 62.949219 225.109375 54.949219 228.132812 42.300781 C 228.140625 42.292969 228.140625 42.292969 228.140625 42.285156 C 229.074219 40.394531 229.210938 37.679688 229.226562 36.785156 C 230.910156 41.882812 232.96875 55.664062 214.976562 71.917969 L 209.414062 68.035156 L 212.753906 75.183594 C 213.828125 77.601562 216.785156 84.34375 220.097656 92.832031 C 223.40625 101.332031 227.074219 111.574219 229.585938 120.996094 C 229.746094 121.644531 231.710938 130.007812 230.882812 140.683594 C 230.554688 143.207031 230.058594 145.652344 229.320312 147.464844 L 229.328125 147.464844 C 225.875 154.277344 218.960938 161.832031 205.175781 163.140625 C 204.113281 163.246094 203.003906 163.308594 201.859375 163.332031 C 201.859375 163.332031 190.664062 161.855469 185.347656 153.058594 C 184.074219 150.949219 183.136719 148.410156 182.773438 145.371094 C 182.773438 145.371094 191.25 149.878906 197.660156 147.75 C 197.660156 147.75 183.757812 142.023438 183.054688 135.425781 C 183.054688 135.425781 188.664062 138.074219 194.738281 136.824219 C 194.738281 136.824219 183 131.160156 182.164062 122.957031 C 182.164062 122.957031 186.007812 125.199219 191.039062 123.210938 C 191.039062 123.210938 182.585938 120.660156 182.28125 106.253906 C 181.980469 91.847656 190.398438 70.574219 209.792969 62.949219 Z M 139.433594 168.816406 C 139.308594 168.671875 139.1875 168.519531 139.0625 168.359375 C 142.277344 169.984375 146.695312 171.007812 151.789062 171.578125 C 165.941406 181.355469 202.410156 200.355469 245.339844 174.523438 C 244.394531 174.816406 198.707031 189.082031 166.15625 172.167969 C 183.128906 171.960938 201.917969 169.226562 209.726562 167.96875 C 209.734375 167.96875 209.734375 167.96875 209.734375 167.96875 C 210.96875 167.820312 212.136719 167.625 213.253906 167.378906 C 213.382812 167.355469 213.445312 167.34375 213.445312 167.34375 C 228.359375 164.089844 232.304688 153.386719 233.085938 145.375 L 233.164062 145.375 C 233.164062 145.375 233.367188 143.503906 233.417969 140.1875 C 233.703125 135.644531 233.78125 130.339844 232.910156 127.601562 C 232.757812 125.902344 232.558594 124.113281 232.3125 122.238281 C 237.816406 123.375 263.398438 129.933594 267.644531 154.085938 C 267.628906 154.433594 266.949219 165.585938 261.636719 171.679688 C 254.46875 178.921875 246.863281 183.808594 239.515625 187.070312 C 239.492188 187.078125 239.480469 187.089844 239.457031 187.097656 C 216.332031 198.417969 190.21875 194.351562 176.527344 190.847656 C 176.484375 190.832031 176.449219 190.824219 176.414062 190.816406 C 173.738281 190.1875 170.941406 189.367188 168.058594 188.3125 C 167.777344 188.210938 167.546875 188.128906 167.371094 188.058594 C 167.25 188.011719 167.136719 187.964844 167.019531 187.925781 C 167.003906 187.917969 166.996094 187.914062 166.984375 187.914062 C 157.953125 184.4375 148.230469 178.566406 139.433594 168.816406 Z M 169.898438 213.214844 C 165.125 213.179688 160.75 211.554688 160.492188 211.460938 C 166.4375 216.488281 173.65625 217.191406 179.945312 216.363281 L 180.503906 217.773438 C 178.804688 219.582031 173.667969 224.121094 164.191406 225.324219 C 157.503906 220.414062 156.960938 206.742188 157.328125 198.269531 C 159.269531 198.664062 161.285156 199.058594 163.339844 199.425781 C 164.160156 202.578125 165.507812 206.1875 167.730469 209.214844 C 165.089844 207.96875 162.996094 206.078125 162.996094 206.078125 C 164.742188 209.578125 167.984375 212.007812 169.898438 213.214844 Z M 135.902344 191.441406 L 135.085938 192.640625 C 135.3125 192.199219 135.585938 191.800781 135.902344 191.441406 Z M 135.046875 192.703125 C 135.238281 192.765625 142.445312 194.96875 152.488281 197.230469 C 152.207031 199.496094 152.039062 201.601562 151.960938 203.5625 L 139.230469 196.519531 L 144.695312 202.296875 C 143.289062 209.347656 147.519531 212.914062 147.757812 213.109375 C 145.878906 209.40625 146.75 206.585938 147.449219 205.214844 L 152.070312 210.117188 C 152.597656 216.820312 154.320312 221.144531 155.785156 223.679688 C 139.929688 217.753906 131.195312 200.253906 135.046875 192.703125 Z M 149.566406 226.207031 C 156.539062 229.132812 168.964844 231.617188 181.796875 221.023438 L 182.632812 223.125 L 179.039062 227.152344 L 183.449219 225.179688 L 184.925781 228.90625 L 183.707031 231.585938 L 185.828125 231.175781 L 187.933594 236.457031 C 188.015625 236.699219 188.109375 236.945312 188.195312 237.195312 C 186.570312 239.09375 184.082031 239.628906 181.789062 239.636719 C 182.207031 236.390625 181.847656 234.578125 181.847656 234.578125 C 181.847656 234.578125 177.542969 238.308594 171.445312 238.402344 C 174.679688 236.511719 178.027344 231.507812 178.027344 231.507812 C 176.554688 233.359375 173.46875 234.519531 170.753906 235.214844 C 170.8125 235.171875 170.867188 235.140625 170.925781 235.097656 C 170.871094 235.121094 170.660156 235.207031 170.320312 235.320312 C 167.792969 235.933594 165.691406 236.140625 165.691406 236.140625 C 161.164062 236.320312 154.585938 234.796875 149.566406 226.207031 Z M 254.417969 257.421875 C 254.328125 257.910156 254.199219 258.390625 254.042969 258.871094 C 254.011719 258.976562 253.980469 259.074219 253.945312 259.179688 C 253.625 260.15625 253.191406 261.105469 252.648438 262 C 252.648438 262 250.28125 256.328125 246.746094 253.988281 C 246.660156 253.929688 246.578125 253.878906 246.492188 253.828125 C 246.492188 253.828125 246.519531 253.917969 246.570312 254.101562 C 246.945312 255.476562 248.605469 261.984375 248.644531 270.242188 C 248.652344 273.460938 248.417969 276.949219 247.761719 280.496094 C 247.363281 277.792969 246.570312 274.933594 245.140625 272.191406 C 244.355469 270.660156 243.367188 269.167969 242.132812 267.761719 C 242.191406 267.96875 242.789062 270.0625 243.199219 273.273438 C 244.097656 280.058594 244.230469 291.84375 236.96875 301.375 C 236.789062 301.546875 236.613281 301.71875 236.421875 301.890625 C 236.421875 301.890625 235.785156 288.355469 229.738281 280.789062 C 229.636719 280.644531 229.519531 280.507812 229.402344 280.367188 C 229.414062 280.414062 229.476562 280.582031 229.550781 280.890625 C 230.15625 283.183594 231.847656 292.683594 222.480469 304.375 C 220.4375 306.925781 217.871094 309.585938 214.644531 312.289062 C 213.613281 313.160156 212.507812 314.039062 211.332031 314.917969 C 212.199219 313.8125 212.984375 312.730469 213.683594 311.671875 C 216.132812 307.984375 217.597656 304.578125 218.402344 301.496094 C 219.980469 295.425781 218.996094 290.609375 217.757812 287.476562 C 216.703125 284.800781 215.457031 283.34375 215.457031 283.34375 C 215.808594 285.039062 215.914062 286.792969 215.832031 288.550781 C 215.679688 291.847656 214.867188 295.164062 213.785156 298.226562 C 213.308594 299.585938 212.78125 300.886719 212.234375 302.121094 C 212.332031 300.484375 212.289062 298.761719 212.054688 297 C 211.804688 295.183594 211.359375 293.332031 210.648438 291.441406 C 209.347656 287.964844 207.144531 284.394531 203.691406 280.917969 C 203.5625 280.78125 203.429688 280.648438 203.289062 280.515625 C 203.304688 280.5625 203.378906 280.742188 203.480469 281.050781 C 203.988281 282.484375 205.214844 286.628906 204.796875 291.867188 C 204.71875 292.859375 204.574219 293.890625 204.359375 294.953125 C 203.804688 297.703125 202.75 300.632812 200.898438 303.558594 C 198.710938 307.015625 195.425781 310.464844 190.570312 313.574219 C 194.152344 309.21875 196.292969 305.085938 197.542969 301.421875 C 197.90625 300.332031 198.199219 299.273438 198.425781 298.269531 C 199.597656 293.027344 198.960938 289.113281 198.5625 287.460938 C 198.449219 286.964844 198.34375 286.671875 198.324219 286.605469 C 198.386719 286.871094 198.449219 287.148438 198.5 287.414062 C 199.273438 291.496094 197.878906 295.832031 195.640625 299.820312 L 195.308594 300.007812 L 195.476562 300.113281 C 193.433594 303.683594 190.734375 306.96875 188.347656 309.53125 C 188.839844 307.675781 189.304688 305.511719 189.597656 303.191406 C 189.871094 301.09375 190.003906 298.855469 189.90625 296.578125 C 189.816406 294.441406 189.523438 292.273438 188.9375 290.144531 C 187.554688 285.113281 184.5625 280.316406 178.878906 276.796875 C 178.878906 276.796875 181.59375 283.625 180.226562 290.433594 C 180.101562 291.054688 179.9375 291.675781 179.742188 292.289062 C 178.226562 295.046875 176.085938 298.234375 173.398438 300.347656 C 173.054688 300.558594 172.703125 300.769531 172.335938 300.964844 C 172.335938 300.964844 172.398438 300.785156 172.492188 300.4375 C 172.902344 299.003906 173.957031 294.824219 173.839844 290.15625 L 173.847656 290.160156 C 173.847656 290.160156 174.078125 288.757812 174.175781 286.589844 C 174.382812 282.003906 173.964844 273.972656 169.386719 268.53125 C 169.386719 268.53125 169.992188 273.078125 169.625 278.242188 C 169.292969 277.886719 168.949219 277.542969 168.566406 277.21875 C 162.496094 272.019531 156.542969 264.007812 155.496094 257.003906 C 154.976562 253.597656 155.625 250.4375 157.976562 247.945312 C 157.976562 247.945312 152.695312 249.066406 148.644531 252.160156 C 147.648438 252.914062 146.730469 253.789062 145.984375 254.800781 C 145.554688 255.371094 145.183594 255.984375 144.886719 256.644531 C 145.039062 256.265625 145.441406 255.316406 146.027344 254.019531 C 146.398438 253.207031 146.835938 252.257812 147.335938 251.234375 C 149.8125 246.078125 153.671875 238.976562 156.765625 237.308594 C 158.660156 238.101562 160.738281 238.507812 162.976562 238.296875 C 162.976562 238.296875 163.277344 238.460938 163.800781 238.710938 C 164.335938 238.953125 165.085938 239.28125 165.992188 239.589844 L 162.886719 243.640625 L 170.179688 240.574219 L 170.164062 240.566406 C 171.808594 240.769531 173.570312 240.75 175.273438 240.269531 C 176.402344 240.859375 177.460938 241.257812 178.464844 241.535156 L 174.4375 251.789062 L 182.984375 241.925781 C 184.796875 241.707031 186.265625 241.042969 187.371094 240.320312 L 186.949219 255.253906 L 191.5625 245.105469 C 194.199219 250.292969 197.0625 253.300781 199.742188 250.839844 C 199.851562 250.742188 199.953125 250.640625 200.0625 250.527344 L 200.109375 250.792969 C 200.414062 250.410156 200.738281 250.035156 201.101562 249.675781 C 201.503906 249.273438 201.921875 248.886719 202.316406 248.472656 C 202.375 248.410156 202.667969 248.035156 202.671875 248.050781 C 202.714844 247.984375 202.761719 247.921875 202.804688 247.855469 C 202.898438 247.714844 203 247.585938 203.113281 247.464844 C 203.164062 247.40625 203.222656 247.355469 203.28125 247.300781 C 203.355469 247.230469 203.425781 247.160156 203.5 247.09375 L 203.503906 246.984375 C 204.15625 245.285156 205.117188 242.785156 206.183594 240 C 207.121094 240.890625 208.550781 241.933594 210.484375 242.496094 C 210.484375 242.496094 211.199219 243.300781 212.300781 244.648438 C 212.460938 244.628906 212.632812 244.636719 212.816406 244.6875 C 215.640625 245.453125 217.464844 248.070312 219.011719 250.390625 C 220.085938 252 221.261719 253.519531 222.46875 255.019531 C 221.171875 250.453125 219.214844 245.632812 216.308594 242.554688 C 217.253906 242.335938 218.257812 242 219.332031 241.519531 C 220.519531 241.921875 221.746094 242.105469 222.949219 242.140625 C 227.535156 242.269531 231.722656 240.242188 231.722656 240.242188 C 232.535156 240.363281 233.316406 240.398438 234.089844 240.363281 C 236.601562 242.492188 241.398438 246.964844 242.921875 251.34375 C 242.230469 249.183594 240.09375 243.09375 237.082031 239.886719 C 240.433594 238.945312 243.34375 236.753906 245.660156 234.394531 C 248.195312 236.484375 252.496094 240.863281 254.140625 247.523438 C 254.199219 247.753906 254.257812 247.980469 254.308594 248.21875 C 254.460938 249.027344 254.585938 249.847656 254.671875 250.667969 C 254.796875 251.792969 254.851562 252.925781 254.816406 254.039062 C 254.78125 255.191406 254.65625 256.320312 254.417969 257.421875 Z M 273.777344 255.894531 C 267.664062 252.34375 261.320312 244.34375 260.597656 238.457031 C 260.597656 238.457031 259.738281 235.390625 262.578125 232.21875 C 263.125 235.769531 264.320312 239.898438 266.84375 243.433594 C 271.023438 249.304688 275.828125 253.984375 278.808594 256.65625 C 277.445312 257.101562 275.765625 257.046875 273.777344 255.894531 Z M 284.371094 251.855469 C 262.199219 238.367188 264.660156 226.664062 264.945312 222.9375 C 265.125 220.582031 267.003906 220.480469 268.375 220.722656 C 268.558594 222.699219 268.929688 224.613281 269.484375 226.464844 C 270.027344 228.3125 270.75 230.082031 271.621094 231.773438 C 273.742188 237.414062 277.988281 246.535156 284.757812 251.808594 C 284.515625 251.847656 284.371094 251.855469 284.371094 251.855469 Z M 308.222656 232.261719 C 308.765625 230.910156 309.097656 229.457031 309.140625 227.921875 C 309.335938 221.058594 303.933594 215.332031 297.070312 215.136719 C 290.214844 214.941406 284.488281 220.355469 284.296875 227.21875 C 284.179688 231.351562 286.097656 235.054688 289.128906 237.410156 C 284.054688 236.46875 278.566406 233.617188 273.917969 226.9375 C 272.824219 224.488281 272.097656 221.84375 271.78125 219.082031 C 271.824219 219.171875 271.851562 219.230469 271.851562 219.230469 C 273.664062 202.707031 284.960938 196.519531 293.070312 194.203125 C 302.269531 191.832031 308.503906 196.097656 308.503906 196.097656 L 308.527344 195.964844 C 309.257812 196.554688 309.859375 197.128906 310.339844 197.660156 C 312.125 200.148438 313.78125 203.027344 314.921875 206.164062 L 309.734375 207.039062 L 314.445312 211.492188 L 305.089844 212.164062 L 315.492188 220.699219 C 314.339844 224.464844 312.0625 228.359375 308.222656 232.261719 Z M 308.222656 232.261719 " fill-opacity="1" fill-rule="nonzero"/></g></g></g></g><g clip-path="url(#id5)"><g clip-path="url(#id6)"><g clip-path="url(#id7)"><g clip-path="url(#id8)"><path fill="#ffffff" d="M 179.542969 209.269531 C 176.144531 209.175781 173.46875 206.339844 173.566406 202.941406 C 173.613281 201.242188 174.347656 199.726562 175.488281 198.644531 C 178.703125 199.871094 182.089844 200.769531 185.519531 201.0625 C 185.765625 201.757812 185.894531 202.507812 185.871094 203.289062 C 185.773438 206.6875 182.941406 209.367188 179.542969 209.269531 Z M 220.996094 200.75 C 217.472656 201.480469 213.859375 201.660156 210.238281 201.644531 C 209.921875 202.355469 209.734375 203.136719 209.710938 203.964844 C 209.613281 207.363281 212.292969 210.199219 215.6875 210.292969 C 219.085938 210.390625 221.917969 207.710938 222.015625 204.3125 C 222.054688 202.996094 221.671875 201.769531 220.996094 200.75 Z M 179.132812 223.835938 C 178.089844 225.109375 177.472656 226.042969 177.472656 226.042969 L 177.449219 226.871094 L 178.992188 228.738281 L 182.21875 228.828125 C 182.21875 228.828125 183.5625 232.492188 184.261719 232.988281 C 184.957031 233.480469 186.726562 233.433594 186.726562 233.433594 L 182.414062 221.914062 C 182.414062 221.914062 180.171875 222.5625 179.132812 223.835938 Z M 215.28125 224.742188 C 214.824219 224.136719 212.730469 222.773438 212.730469 222.773438 L 207.757812 233.246094 L 211.222656 234.132812 C 212.304688 233.597656 213.265625 233.097656 215.058594 232.554688 C 216.851562 232.011719 217.023438 230.121094 216.722656 228.191406 C 216.421875 226.261719 215.734375 225.347656 215.28125 224.742188 Z M 215.28125 224.742188 " fill-opacity="1" fill-rule="nonzero"/></g></g></g></g><g clip-path="url(#id9)"><g clip-path="url(#id10)"><g clip-path="url(#id11)"><g clip-path="url(#id12)"><path fill="#000000" d="M 208.320312 213.40625 L 214.097656 220.441406 L 207.996094 235.277344 L 207.152344 231.621094 C 207.152344 231.621094 208.882812 229.023438 209.035156 227.804688 C 209.1875 226.582031 208.484375 226.328125 209.121094 224.804688 C 209.757812 223.28125 208.320312 213.40625 208.320312 213.40625 Z M 186.855469 228.960938 C 186.519531 228.429688 183.496094 218.152344 183.496094 218.152344 L 180.003906 221.847656 L 189.136719 240.589844 L 188.824219 234.804688 C 188.828125 234.804688 187.1875 229.492188 186.855469 228.960938 Z M 179.261719 240.214844 L 178.730469 238.042969 L 162.445312 238.328125 C 162.445312 238.328125 162.636719 238.675781 163.042969 239.183594 L 160.328125 245.9375 L 167.769531 242.425781 C 170.21875 243.242188 173.601562 243.375 178.09375 241.605469 C 179.78125 243.058594 183.371094 245.359375 187.75 243.472656 L 188.542969 240.574219 L 188.226562 238.726562 Z M 209.15625 240.339844 C 208.683594 240.195312 206.46875 239.242188 206.46875 239.242188 L 202.777344 243.898438 C 202.777344 243.898438 202.996094 244.289062 203.511719 244.726562 C 203.523438 245.167969 203.613281 245.542969 203.628906 245.992188 L 198.027344 251.695312 C 198.027344 251.695312 202.308594 252.0625 207.019531 245.890625 C 208.484375 245.890625 210.390625 245.457031 212.835938 244.183594 C 212.835938 244.183594 213.117188 242.449219 212.769531 242.203125 C 212.425781 241.960938 209.625 240.484375 209.15625 240.339844 Z M 240.738281 237.257812 L 233.332031 239.589844 C 233.332031 239.589844 241.5 247.738281 243.511719 252.976562 C 243.601562 252.976562 243.6875 252.984375 243.777344 252.992188 C 243.453125 250.011719 242.558594 243.050781 240.738281 237.257812 Z M 216.507812 241.367188 L 214.273438 243.613281 L 215.480469 246.117188 C 216.898438 247.285156 218.011719 248.894531 219.007812 250.390625 C 220.40625 252.484375 221.976562 254.433594 223.5625 256.375 C 222.214844 248.273438 219.921875 240.644531 219.921875 240.644531 Z M 216.507812 241.367188 " fill-opacity="1" fill-rule="nonzero"/></g></g></g></g><g fill="#ffffff" fill-opacity="1"><g transform="translate(26.356283, 159.522569)"><g><path d="M -12.6875 -11.375 C -11.53125 -11.164062 -10.394531 -11.175781 -9.28125 -11.40625 C -8.164062 -11.644531 -7.125 -12.085938 -6.15625 -12.734375 C -5.1875 -13.390625 -4.375 -14.226562 -3.71875 -15.25 L 3.375 -26.1875 L 7.640625 -23.421875 L -3.875 -5.65625 L 1.4375 -2.21875 L 11.546875 -17.828125 C 12.210938 -18.859375 12.644531 -19.953125 12.84375 -21.109375 C 13.039062 -22.265625 13.019531 -23.394531 12.78125 -24.5 C 12.550781 -25.613281 12.113281 -26.660156 11.46875 -27.640625 C 10.820312 -28.617188 9.988281 -29.441406 8.96875 -30.109375 C 7.945312 -30.765625 6.859375 -31.1875 5.703125 -31.375 C 4.546875 -31.5625 3.414062 -31.535156 2.3125 -31.296875 C 1.207031 -31.066406 0.164062 -30.625 -0.8125 -29.96875 C -1.800781 -29.320312 -2.628906 -28.484375 -3.296875 -27.453125 L -10.34375 -16.5625 L -14.625 -19.328125 L -3.140625 -37.0625 L -8.453125 -40.515625 L -18.578125 -24.890625 C -19.234375 -23.867188 -19.660156 -22.78125 -19.859375 -21.625 C -20.054688 -20.46875 -20.035156 -19.332031 -19.796875 -18.21875 C -19.554688 -17.113281 -19.109375 -16.070312 -18.453125 -15.09375 C -17.796875 -14.113281 -16.960938 -13.296875 -15.953125 -12.640625 C -14.921875 -11.972656 -13.832031 -11.550781 -12.6875 -11.375 Z M -12.6875 -11.375 "/></g></g></g><g fill="#ffffff" fill-opacity="1"><g transform="translate(47.056479, 129.489791)"><g><path d="M -20.09375 -21.1875 L 1.796875 -2.046875 L 5.96875 -6.828125 L -15.921875 -25.96875 Z M -20.09375 -21.1875 "/></g></g></g><g fill="#ffffff" fill-opacity="1"><g transform="translate(57.539853, 116.988454)"><g><path d="M -12.125 -27.953125 L -16.953125 -23.78125 L 2.0625 -1.78125 L 22.0625 -19.0625 L 17.875 -23.90625 L 2.703125 -10.796875 Z M -12.125 -27.953125 "/></g></g></g><g fill="#ffffff" fill-opacity="1"><g transform="translate(83.915315, 94.651971)"><g><path d="M 25.25 -14.578125 L 22.046875 -20.125 L 4.6875 -10.09375 L 2.171875 -14.453125 L 10.5 -19.265625 L 7.296875 -24.8125 L -1.03125 -20 L -3.46875 -24.21875 L 13.9375 -34.265625 L 10.765625 -39.78125 L -12.171875 -26.546875 L 2.359375 -1.359375 Z M 25.25 -14.578125 "/></g></g></g><g fill="#ffffff" fill-opacity="1"><g transform="translate(114.530732, 77.380077)"><g><path d="M -2.953125 -16.78125 C -2.160156 -15.90625 -1.253906 -15.21875 -0.234375 -14.71875 C 0.773438 -14.21875 1.863281 -13.921875 3.03125 -13.828125 C 4.195312 -13.742188 5.359375 -13.894531 6.515625 -14.28125 L 18.84375 -18.515625 L 20.484375 -13.703125 L 0.453125 -6.84375 L 2.5 -0.859375 L 20.109375 -6.890625 C 21.253906 -7.273438 22.265625 -7.863281 23.140625 -8.65625 C 24.015625 -9.445312 24.703125 -10.351562 25.203125 -11.375 C 25.703125 -12.394531 26 -13.488281 26.09375 -14.65625 C 26.195312 -15.820312 26.050781 -16.976562 25.65625 -18.125 C 25.257812 -19.28125 24.664062 -20.289062 23.875 -21.15625 C 23.082031 -22.019531 22.175781 -22.695312 21.15625 -23.1875 C 20.132812 -23.6875 19.035156 -23.976562 17.859375 -24.0625 C 16.679688 -24.15625 15.519531 -24.007812 14.375 -23.625 L 2.078125 -19.40625 L 0.421875 -24.234375 L 20.421875 -31.078125 L 18.375 -37.0625 L 0.765625 -31.03125 C -0.390625 -30.644531 -1.398438 -30.054688 -2.265625 -29.265625 C -3.128906 -28.484375 -3.804688 -27.582031 -4.296875 -26.5625 C -4.796875 -25.550781 -5.085938 -24.453125 -5.171875 -23.265625 C -5.265625 -22.085938 -5.117188 -20.925781 -4.734375 -19.78125 C -4.335938 -18.625 -3.742188 -17.625 -2.953125 -16.78125 Z M -2.953125 -16.78125 "/></g></g></g><g fill="#ffffff" fill-opacity="1"><g transform="translate(149.362948, 66.557907)"><g><path d="M -2.71875 -29.078125 L 2.671875 -0.5 L 8.921875 -1.6875 L 3.53125 -30.265625 Z M -2.71875 -29.078125 "/></g></g></g><g fill="#ffffff" fill-opacity="1"><g transform="translate(165.139681, 62.895674)"><g><path d="M 24.984375 -12.078125 L 29.890625 -0.84375 L 36.28125 -1.03125 L 23.78125 -29.765625 L 12.203125 -29.4375 L 1.359375 -0.03125 L 7.75 -0.21875 L 12 -11.703125 Z M 14.390625 -18.21875 L 17.8125 -27.46875 L 18.296875 -27.484375 L 22.25 -18.4375 Z M 14.390625 -18.21875 "/></g></g></g><g fill="#ffffff" fill-opacity="1"><g transform="translate(206.962971, 62.985219)"><g/></g></g><g fill="#ffffff" fill-opacity="1"><g transform="translate(226.727379, 65.452668)"><g><path d="M 7.375 -15.34375 C 7.5 -14.1875 7.828125 -13.101562 8.359375 -12.09375 C 8.898438 -11.09375 9.617188 -10.21875 10.515625 -9.46875 C 11.410156 -8.71875 12.441406 -8.164062 13.609375 -7.8125 L 26.078125 -4.0625 L 24.625 0.796875 L 4.359375 -5.296875 L 2.53125 0.765625 L 20.34375 6.125 C 21.507812 6.476562 22.679688 6.585938 23.859375 6.453125 C 25.035156 6.316406 26.117188 5.976562 27.109375 5.4375 C 28.109375 4.90625 28.984375 4.191406 29.734375 3.296875 C 30.492188 2.410156 31.050781 1.382812 31.40625 0.21875 C 31.757812 -0.945312 31.863281 -2.109375 31.71875 -3.265625 C 31.582031 -4.429688 31.242188 -5.515625 30.703125 -6.515625 C 30.171875 -7.515625 29.453125 -8.390625 28.546875 -9.140625 C 27.640625 -9.898438 26.601562 -10.457031 25.4375 -10.8125 L 13.015625 -14.5625 L 14.484375 -19.453125 L 34.703125 -13.359375 L 36.53125 -19.421875 L 18.71875 -24.78125 C 17.550781 -25.132812 16.382812 -25.242188 15.21875 -25.109375 C 14.050781 -24.972656 12.96875 -24.632812 11.96875 -24.09375 C 10.976562 -23.5625 10.101562 -22.835938 9.34375 -21.921875 C 8.59375 -21.015625 8.039062 -19.984375 7.6875 -18.828125 C 7.34375 -17.660156 7.238281 -16.5 7.375 -15.34375 Z M 7.375 -15.34375 "/></g></g></g><g fill="#ffffff" fill-opacity="1"><g transform="translate(261.339836, 76.958453)"><g><path d="M 14.75 -25.21875 L 2.46875 1.140625 L 8.234375 3.828125 L 20.515625 -22.53125 Z M 14.75 -25.21875 "/></g></g></g><g fill="#ffffff" fill-opacity="1"><g transform="translate(276.272001, 83.603962)"><g><path d="M 39.03125 -9.53125 L 16.890625 -23.765625 L 13.421875 -18.375 L 21.8125 -12.984375 L 9.53125 6.125 L 14.875 9.5625 L 27.15625 -9.546875 L 35.5625 -4.140625 Z M 39.03125 -9.53125 "/></g></g></g><g fill="#ffffff" fill-opacity="1"><g transform="translate(303.982712, 101.755897)"><g><path d="M 21.1875 20.03125 L 25.59375 15.375 L 11.03125 1.59375 L 14.484375 -2.0625 L 21.46875 4.5625 L 25.859375 -0.09375 L 18.875 -6.71875 L 22.234375 -10.265625 L 36.828125 3.546875 L 41.1875 -1.078125 L 21.9375 -19.265625 L 1.96875 1.875 Z M 21.1875 20.03125 "/></g></g></g><g fill="#ffffff" fill-opacity="1"><g transform="translate(329.292185, 126.150199)"><g><path d="M 15.21875 -7.625 C 14.613281 -6.625 14.21875 -5.5625 14.03125 -4.4375 C 13.84375 -3.320312 13.867188 -2.191406 14.109375 -1.046875 C 14.359375 0.0859375 14.835938 1.15625 15.546875 2.15625 L 23.125 12.75 L 19 15.703125 L 6.6875 -1.515625 L 1.53125 2.15625 L 12.34375 17.296875 C 13.050781 18.285156 13.90625 19.082031 14.90625 19.6875 C 15.914062 20.300781 16.984375 20.703125 18.109375 20.890625 C 19.234375 21.085938 20.363281 21.0625 21.5 20.8125 C 22.644531 20.570312 23.71875 20.097656 24.71875 19.390625 C 25.707031 18.679688 26.5 17.820312 27.09375 16.8125 C 27.695312 15.8125 28.085938 14.75 28.265625 13.625 C 28.453125 12.507812 28.421875 11.375 28.171875 10.21875 C 27.921875 9.070312 27.441406 8.003906 26.734375 7.015625 L 19.1875 -3.546875 L 23.34375 -6.515625 L 35.625 10.671875 L 40.78125 7 L 29.96875 -8.140625 C 29.257812 -9.140625 28.40625 -9.9375 27.40625 -10.53125 C 26.40625 -11.132812 25.34375 -11.53125 24.21875 -11.71875 C 23.101562 -11.914062 21.96875 -11.882812 20.8125 -11.625 C 19.65625 -11.375 18.585938 -10.894531 17.609375 -10.1875 C 16.609375 -9.476562 15.8125 -8.625 15.21875 -7.625 Z M 15.21875 -7.625 "/></g></g></g></svg>